<svg viewBox="-512 -512 1024 1024" class="s-0si41JEa8pt8"><path d="M 10.276864502325578,11.82218024876641 A 15.664542439327175,15.664542439327175 0 0 1 -14.31027159149709,-6.371343407090336" stroke="#00FFFF" stroke-width="18.2462290228411" fill="none"></path><!--<Ring>--><path d="M -23.44562240990322,-27.94140473760947 A 36.47491341865887,36.47491341865887 0 0 1 3.812666647473107,-36.27510002651829" stroke="#8f001a" stroke-width="16.485118790263574" fill="none"></path><!--<Ring>--><path d="M 54.70633997349616,1.910387487951644 A 54.73968591113641,54.73968591113641 0 1 1 -53.113683297266036,-13.242728580152534" stroke="#00999b" stroke-width="0.31160616555384224" fill="none"></path><!--<Ring>--><path d="M -70.38844158999837,-27.01959120859146 A 75.39622681903919,75.39622681903919 0 0 1 -5.259374916508444,-75.21256539990911" stroke="#00FFFF" stroke-width="0.4967370348915989" fill="none"></path><!--<Ring>--><path d="M -88.87922811419908,17.27637183675983 A 90.54275351466744,90.54275351466744 0 0 1 -90.54275351466744,1.1088289327772524e-14" stroke="#8f001a" stroke-width="10.382963902316988" fill="none"></path><!--<Ring>--><path d="M 23.343013583955198,-109.82024455304061 A 112.27369414457851,112.27369414457851 0 0 1 40.235293558468754,104.816523263912" stroke="#8f001a" stroke-width="15.193426449783145" fill="none"></path><!--<Ring>--><path d="M -77.63404078245902,-103.02385180182998 A 128.99983848167383,128.99983848167383 0 1 1 -97.35741394930949,-84.63150877421917" stroke="#00FFFF" stroke-width="17.93683729334069" fill="none"></path><!--<Ring>--><path d="M 133.76456987556952,-68.15645259227853 A 150.1274864372265,150.1274864372265 0 1 1 81.76528934240251,-125.90750431452776" stroke="#8f001a" stroke-width="13.803109912767207" fill="none"></path><!--<Ring>--><path d="M 150.9439004842364,-67.20455436793907 A 165.2286694892516,165.2286694892516 0 0 1 -82.61433474462567,143.09222521119474" stroke="#8f001a" stroke-width="17.094609132635274" fill="none"></path><!--<Ring>--><path d="M 120.74478141395085,134.10066533864912 A 180.45024434167757,180.45024434167757 0 1 1 169.56776302688854,-61.717618432892486" stroke="#FF6B6B" stroke-width="5.709945926609049" fill="none"></path><!--<Ring>--><path d="M -88.4369419335778,-181.32260178393955 A 201.73987859682114,201.73987859682114 0 1 1 -196.5692985781501,-45.381598393558185" stroke="#8f001a" stroke-width="0.09898817539215087" fill="none"></path><!--<Ring>--><path d="M 7.839558965525279,224.49559616313303 A 224.63243617388486,224.63243617388486 0 0 1 -205.21194170584394,91.36624301530493" stroke="#8f001a" stroke-width="13.314567021127523" fill="none"></path><!--<Ring>--><path d="M -185.4884484555748,-155.64328868671873 A 242.137972700842,242.137972700842 0 0 1 -102.3319291242469,-219.4515301960408" stroke="#00999b" stroke-width="10.245597713726704" fill="none"></path><!--<Ring>--><path d="M 226.47852516875338,130.75743747184916 A 261.5148749436984,261.5148749436984 0 0 1 -250.08791866373724,-76.45954979764231" stroke="#00FFFF" stroke-width="13.990637068137792" fill="none"></path><!--<Ring>--><path d="M 253.8606230551458,-107.75744131418907 A 275.78412227053195,275.78412227053195 0 1 1 245.72545221060636,-125.20337148983141" stroke="#8f001a" stroke-width="7.082951419986784" fill="none"></path><!--<Ring>--><path d="M -294.5174027504099,-20.594663036218886 A 295.23658423105786,295.23658423105786 0 1 1 -15.451488953632841,294.8319727531909" stroke="#00999b" stroke-width="14.084606601158155" fill="none"></path><!--<Ring>--><path d="M 253.40088513951392,190.95126329651364 A 317.2922840915354,317.2922840915354 0 0 1 168.13929373265947,269.07911744895046" stroke="#FF6B6B" stroke-width="12.72483675015558" fill="none"></path><!--<Ring>--><path d="M -328.40239724877284,40.32274414565184 A 330.8686419323785,330.8686419323785 0 0 1 203.7030762310852,-260.7280478739662" stroke="#FF6B6B" stroke-width="1.496773888589814" fill="none"></path><!--<Ring>--><path d="M 2.1630282585092537e-14,353.2493221743997 A 353.2493221743997,353.2493221743997 0 0 1 -61.341101057662875,-347.88267122365613" stroke="#00999b" stroke-width="2.453148374300716" fill="none"></path><!--<Ring>--><path d="M 211.88872937568695,302.6084665090066 A 369.4167262582674,369.4167262582674 0 0 1 -222.3205356658731,295.02931559527246" stroke="#dd4d51" stroke-width="9.966518876608461" fill="none"></path><!--<Ring>--><path d="M 341.6613254936554,189.38596525248389 A 390.63986633816137,390.63986633816137 0 0 1 -385.830441353845,61.109538513997606" stroke="#8f001a" stroke-width="13.456538997457494" fill="none"></path><!--<Ring>--><path d="M 42.56324564084717,-404.9622313816226 A 407.19287656473796,407.19287656473796 0 0 1 49.62432850619816,404.1577226100905" stroke="#00999b" stroke-width="15.120529378464976" fill="none"></path><!--<Ring>--><path d="M 235.61473940352562,349.3132162459679 A 421.34787108551245,421.34787108551245 0 1 1 -178.0693048663038,-381.87085661611434" stroke="#dd4d51" stroke-width="3.240522296666833" fill="none"></path><!--<Ring>--><path d="M -408.538378256686,173.414253025077 A 443.81990678748116,443.81990678748116 0 0 1 15.489091373434125,-443.5495436918788" stroke="#8f001a" stroke-width="14.623768049425312" fill="none"></path><!--<Ring>--><path d="M -157.24223850210498,432.0194996690317 A 459.7455488239482,459.7455488239482 0 0 1 -336.23660893533156,313.54571034396605" stroke="#dd4d51" stroke-width="0.2171177023223468" fill="none"></path><!--<Ring>--><path d="M 406.9628354161558,254.29860321767558 A 479.88178649373424,479.88178649373424 0 1 1 314.8307788773091,-362.1713816412402" stroke="#00FFFF" stroke-width="3.4011496385958577" fill="none"></path><!--<Ring>--><path d="M 43.262416520791625,-494.4916835764963 A 496.3805614742949,496.3805614742949 0 1 1 -77.65102759060052,-490.2692930662291" stroke="#00999b" stroke-width="0.1306844483063157" fill="none"></path><!--<Ring>--><path d="M 482.32461886413233,-175.55180452033494 A 513.2791385131256,513.2791385131256 0 1 1 -398.89280959558874,-323.01702816680387" stroke="#FF6B6B" stroke-width="0.6712233773432672" fill="none"></path><!--<Ring>--><!--<Sketch>--></svg>