<svg viewBox="-512 -512 1024 1024" class="s-0si41JEa8pt8"><path d="M 6.037348497123491,-14.223101740250868 A 15.451414174412857,15.451414174412857 0 1 1 -12.657057508126185,8.862567078743785" stroke="#FF6B6B" stroke-width="13.798769656770132" fill="none"></path><!--<Ring>--><path d="M -24.174681162030904,-16.30602833574001 A 29.159934317000918,29.159934317000918 0 0 1 -5.356593033699335e-15,-29.159934317000918" stroke="#8f001a" stroke-width="1.5012620747894854" fill="none"></path><!--<Ring>--><path d="M -2.078481333735177,39.659786431892705 A 39.71421338108092,39.71421338108092 0 1 1 24.4505112015943,31.295227215323713" stroke="#FF6B6B" stroke-width="5.061291045937184" fill="none"></path><!--<Ring>--><path d="M 20.603752700380586,53.67461085141683 A 57.49329069891089,57.49329069891089 0 0 1 -29.611233761811192,49.28136879686731" stroke="#dd4d51" stroke-width="6.697403885776529" fill="none"></path><!--<Ring>--><path d="M -22.446828653161695,69.08423500762954 A 72.63946340092131,72.63946340092131 0 0 1 -3.8016557780615723,-72.53991354088394" stroke="#dd4d51" stroke-width="10.312147333462898" fill="none"></path><!--<Ring>--><path d="M 60.83012708035628,60.83012708035627 A 86.02679071791873,86.02679071791873 0 1 1 84.14689893956144,17.885975513787937" stroke="#FF6B6B" stroke-width="1.3344590502312859" fill="none"></path><!--<Ring>--><path d="M -96.15487068526569,-13.51368578680776 A 97.09983964994349,97.09983964994349 0 1 1 3.388735533676567,97.04068905117862" stroke="#00FFFF" stroke-width="13.514574467128998" fill="none"></path><!--<Ring>--><path d="M 105.06379232420757,-32.12122482391109 A 109.86434153870152,109.86434153870152 0 1 1 -72.077493230562,-82.91567108412465" stroke="#00999b" stroke-width="13.645335911999682" fill="none"></path><!--<Ring>--><path d="M -101.2469879060206,73.56024254616844 A 125.14815956894057,125.14815956894057 0 1 1 -86.9352165921028,90.02405211707136" stroke="#00FFFF" stroke-width="12.019973939259511" fill="none"></path><!--<Ring>--><path d="M 53.16882395496629,131.5974571825425 A 141.9324296193978,141.9324296193978 0 0 1 12.37022632345833,141.39233387412392" stroke="#00FFFF" stroke-width="8.29129925931527" fill="none"></path><!--<Ring>--><path d="M 24.186528565661643,-152.7077313661776 A 154.61125244645754,154.61125244645754 0 1 1 -147.85547603994883,-45.20395544708829" stroke="#8f001a" stroke-width="0.946275523838562" fill="none"></path><!--<Ring>--><path d="M -140.5861875042736,91.29773766396421 A 167.62980945984756,167.62980945984756 0 1 1 100.88213766105162,133.87511837709587" stroke="#8f001a" stroke-width="1.9316791176191859" fill="none"></path><!--<Ring>--><path d="M 49.79393539158008,173.6520895002774 A 180.650170743327,180.650170743327 0 1 1 -22.01571769451699,-179.30363176463698" stroke="#dd4d51" stroke-width="5.019792816022763" fill="none"></path><!--<Ring>--><path d="M -194.41740944046268,30.792692583573924 A 196.84084690451573,196.84084690451573 0 1 1 -76.91184624378573,181.1929549332955" stroke="#8f001a" stroke-width="5.021939082599774" fill="none"></path><!--<Ring>--><path d="M 77.25503245667666,-191.21291519376967 A 206.22977228514296,206.22977228514296 0 0 1 -46.39160471263805,200.94411658211905" stroke="#8f001a" stroke-width="4.662527745665127" fill="none"></path><!--<Ring>--><path d="M 222.97166995877578,11.68545006557063 A 223.27766423769347,223.27766423769347 0 1 1 -111.63883211884684,-193.36412932749474" stroke="#00999b" stroke-width="11.123015938628766" fill="none"></path><!--<Ring>--><path d="M 151.61111030340206,180.6830853812764 A 235.8650167157647,235.8650167157647 0 1 1 -131.8940435244648,-195.54096090869183" stroke="#dd4d51" stroke-width="7.098678826203418" fill="none"></path><!--<Ring>--><path d="M 145.00395446311194,-207.08710853621767 A 252.80667976110016,252.80667976110016 0 1 1 -35.18388956577068,-250.34638253199327" stroke="#00999b" stroke-width="7.7473986638659555" fill="none"></path><!--<Ring>--><path d="M 176.3587449597481,-195.8662292518663 A 263.5640087058969,263.5640087058969 0 0 1 -154.91903735241115,213.22776214865726" stroke="#FF6B6B" stroke-width="4.041691329682598" fill="none"></path><!--<Ring>--><path d="M 89.80675544587002,260.81775605466805 A 275.84625282411696,275.84625282411696 0 0 1 -125.2315781709022,245.7808109392022" stroke="#00999b" stroke-width="6.066650365554803" fill="none"></path><!--<Ring>--><path d="M -176.73043686974657,234.5292110707099 A 293.66238806088376,293.66238806088376 0 0 1 -293.2599339641575,-15.369101891752726" stroke="#00FFFF" stroke-width="4.989843615481781" fill="none"></path><!--<Ring>--><path d="M 293.0172660626338,84.02134899112117 A 304.82569658266686,304.82569658266686 0 1 1 211.74972166214388,-219.27325571786602" stroke="#FF6B6B" stroke-width="2.307900798507035" fill="none"></path><!--<Ring>--><path d="M 208.3265049662508,-239.65222969994582 A 317.54231823744203,317.54231823744203 0 0 1 243.2515283409105,-204.11226771416784" stroke="#FF6B6B" stroke-width="5.515280215875119" fill="none"></path><!--<Ring>--><path d="M 284.8143067249391,177.9717312577171 A 335.8468794585961,335.8468794585961 0 1 1 -125.81045542334921,-311.3918042406483" stroke="#8f001a" stroke-width="5.4134684536052315" fill="none"></path><!--<Ring>--><path d="M 283.6353122073392,206.07311676271004 A 350.5925267076472,350.5925267076472 0 0 1 -338.6463760508564,-90.74002298255311" stroke="#dd4d51" stroke-width="7.583440867730895" fill="none"></path><!--<Ring>--><path d="M 191.90631676542844,307.11430506080455 A 362.14255589125935,362.14255589125935 0 0 1 -335.7727308739261,-135.6609891933562" stroke="#dd4d51" stroke-width="7.632757910376263" fill="none"></path><!--<Ring>--><path d="M -146.3570239042635,344.7955410197829 A 374.57221406991465,374.57221406991465 0 0 1 -367.6902674952058,71.47174786264856" stroke="#00999b" stroke-width="11.063209737348998" fill="none"></path><!--<Ring>--><path d="M 369.0073084366081,-119.89774256494518 A 387.9972452889323,387.9972452889323 0 0 1 87.28038941026068,378.05290102866974" stroke="#8f001a" stroke-width="5.337075519274819" fill="none"></path><!--<Ring>--><path d="M -276.14566827135303,296.1299740630549 A 404.9066455908296,404.9066455908296 0 1 1 28.24485979197872,403.9203133527072" stroke="#00FFFF" stroke-width="6.102134125886132" fill="none"></path><!--<Ring>--><path d="M -208.59506501874125,-361.2972508205928 A 417.1901300374821,417.1901300374821 0 1 1 -310.0326863775958,279.1546846789116" stroke="#8f001a" stroke-width="4.585208140817043" fill="none"></path><!--<Ring>--><path d="M -403.9944159975965,163.2243391539873 A 435.72201350114835,435.72201350114835 0 1 1 411.98325756287215,141.85721179192498" stroke="#00999b" stroke-width="0.24853546227756385" fill="none"></path><!--<Ring>--><path d="M -424.81144276983986,129.87789188946 A 444.2218237658334,444.2218237658334 0 0 1 -291.43573835620504,-335.2584661401062" stroke="#00999b" stroke-width="1.6044186586010698" fill="none"></path><!--<Ring>--><path d="M 135.04087969218466,441.698814943584 A 461.8808096366481,461.8808096366481 0 0 1 -428.24842942933594,-173.0235966621681" stroke="#00FFFF" stroke-width="3.432710941302011" fill="none"></path><!--<Ring>--><path d="M 471.5364171455071,-49.56047452399551 A 474.1337715555234,474.1337715555234 0 0 1 368.47114575473734,298.38205052525603" stroke="#00999b" stroke-width="13.904102740381417" fill="none"></path><!--<Ring>--><path d="M -420.71528539876437,-242.9000832771669 A 485.8001665543337,485.8001665543337 0 1 1 189.81724729805165,447.1814111212682" stroke="#8f001a" stroke-width="13.11481089884969" fill="none"></path><!--<Ring>--><path d="M 461.7584933493166,-205.58812692396663 A 505.457598728455,505.457598728455 0 1 1 -505.38061508792987,-8.821451449822518" stroke="#dd4d51" stroke-width="11.630328421757833" fill="none"></path><!--<Ring>--><path d="M 359.4390875185832,-372.2100710867152 A 517.4328890344808,517.4328890344808 0 0 1 509.57192078466215,-89.85127824577306" stroke="#8f001a" stroke-width="12.830264742763058" fill="none"></path><!--<Ring>--><!--<Sketch>--></svg>