<svg viewBox="-512 -512 1024 1024" class="s-0si41JEa8pt8"><path d="M 1.4619424499087925,27.89552371630185 A 27.933806026633828,27.933806026633828 0 0 1 -13.966903013316909,24.19138564345175" stroke="#FF6B6B" stroke-width="6.119536747038365" fill="none"></path><!--<Ring>--><path d="M -5.022012105613473,71.81811905954538 A 71.99349158667027,71.99349158667027 0 0 1 -62.34819262119772,35.99674579333513" stroke="#dd4d51" stroke-width="5.05560093652457" fill="none"></path><!--<Ring>--><path d="M 42.22001782765513,-99.46412888440244 A 108.05388859314844,108.05388859314844 0 1 1 -7.537458242598752,-107.79067475130498" stroke="#8f001a" stroke-width="20.6629407890141" fill="none"></path><!--<Ring>--><path d="M -23.841294783130653,-135.21070165971543 A 137.2965446770191,137.2965446770191 0 1 1 -113.8239941192307,76.77525345444352" stroke="#dd4d51" stroke-width="15.672761886194348" fill="none"></path><!--<Ring>--><path d="M 88.48565486511616,141.6066488054546 A 166.97950204387308,166.97950204387308 0 1 1 95.775507725997,136.78160045359647" stroke="#FF6B6B" stroke-width="28.013915013894437" fill="none"></path><!--<Ring>--><path d="M -35.13905990840353,199.28351161698654 A 202.35778100593015,202.35778100593015 0 1 1 181.87796879044072,-88.70781252126251" stroke="#00FFFF" stroke-width="4.107667462714017" fill="none"></path><!--<Ring>--><path d="M -237.12071088622545,24.922390983350354 A 238.42683805208654,238.42683805208654 0 0 1 -182.64555438022938,-153.2578173166203" stroke="#8f001a" stroke-width="19.13039153907448" fill="none"></path><!--<Ring>--><path d="M 185.77140330120494,199.2154401175882 A 272.3927419476211,272.3927419476211 0 1 1 -33.19632460948427,-270.3623677551391" stroke="#dd4d51" stroke-width="28.938950528018175" fill="none"></path><!--<Ring>--><path d="M 292.86727348297245,-78.4735494192672 A 303.1985122585669,303.1985122585669 0 1 1 -296.5728973117766,-63.03851533710749" stroke="#00999b" stroke-width="25.219829859025776" fill="none"></path><!--<Ring>--><path d="M -120.21004481787494,330.27438372873956 A 351.4706579823047,351.4706579823047 0 1 1 211.52032217088623,-280.69694820435564" stroke="#00FFFF" stroke-width="29.601110013015568" fill="none"></path><!--<Ring>--><path d="M 371.3703956348449,78.93721440217841 A 379.66703118858857,379.66703118858857 0 0 1 172.36522522393741,338.28580180826094" stroke="#00999b" stroke-width="14.08398572448641" fill="none"></path><!--<Ring>--><path d="M 129.5844423232295,398.81990481223954 A 419.3440641843714,419.3440641843714 0 1 1 405.05526169670503,-108.53423026160915" stroke="#dd4d51" stroke-width="10.93305649664253" fill="none"></path><!--<Ring>--><path d="M -430.0515208039868,-107.22388680173052 A 443.21695866324006,443.21695866324006 0 1 1 1.3569605743869044e-13,443.21695866324006" stroke="#00FFFF" stroke-width="12.05404339954257" fill="none"></path><!--<Ring>--><path d="M 286.4659141230913,394.28650503027063 A 487.3649228282273,487.3649228282273 0 0 1 126.1393239428655,470.7583657871635" stroke="#00FFFF" stroke-width="26.112048572488128" fill="none"></path><!--<Ring>--><path d="M -281.7132874934805,-433.80042125223565 A 517.2476987179368,517.2476987179368 0 0 1 -202.10477702853936,-476.1290171069664" stroke="#8f001a" stroke-width="29.904302524402738" fill="none"></path><!--<Ring>--><!--<Sketch>--></svg>